<svg width="297" height="75" viewBox="0 0 297 75" fill="none" xmlns="http://www.w3.org/2000/svg">
<g filter="url(#filter0_d)">
<mask id="path-1-outside-1" maskUnits="userSpaceOnUse" x="4.41602" y="0.207031" width="288" height="66" fill="black">
<rect fill="white" x="4.41602" y="0.207031" width="288" height="66"/>
<path d="M27.4863 31.2852H18.6973V57.0176C18.6973 58.873 19.0879 60.224 19.8691 61.0703C20.6829 61.8841 22.0013 62.291 23.8242 62.291H25.4844V64H5.41602V62.291H6.97852C8.76888 62.291 10.0384 61.9492 10.7871 61.2656C11.5358 60.5495 11.9102 59.3288 11.9102 57.6035V31.2852H6.97852V29.5762C9.25716 28.6647 10.901 27.8672 11.9102 27.1836V20.2012C11.9102 14.6999 13.2611 10.1589 15.9629 6.57812C18.6973 2.9974 22.4082 1.20703 27.0957 1.20703C31.2298 1.20703 34.5664 2.16732 37.1055 4.08789L33.6875 13.0234H31.9785C32.0111 12.5026 32.0273 11.998 32.0273 11.5098C32.0273 8.9056 31.4251 6.88737 30.2207 5.45508C29.0488 4.02279 27.4049 3.30664 25.2891 3.30664C23.2383 3.30664 21.627 4.03906 20.4551 5.50391C19.2832 6.96875 18.6973 9.00325 18.6973 11.6074V28.6973H27.4863V31.2852Z"/>
<path d="M72.2617 46.4219C72.2617 51.7604 70.4062 56.2201 66.6953 59.8008C63.0169 63.349 58.4108 65.123 52.877 65.123C47.3431 65.123 42.7207 63.349 39.0098 59.8008C35.3314 56.2201 33.4922 51.7604 33.4922 46.4219C33.4922 41.0182 35.3314 36.5423 39.0098 32.9941C42.6882 29.4134 47.3105 27.623 52.877 27.623C58.4434 27.623 63.0658 29.4134 66.7441 32.9941C70.4225 36.5423 72.2617 41.0182 72.2617 46.4219ZM64.8887 46.4219C64.8887 41.3763 63.8145 37.3073 61.666 34.2148C59.5176 31.1224 56.5879 29.5762 52.877 29.5762C49.166 29.5762 46.2363 31.0898 44.0879 34.1172C41.9395 37.1445 40.8652 41.2461 40.8652 46.4219C40.8652 51.5 41.9232 55.5527 44.0391 58.5801C46.1875 61.6074 49.1335 63.1211 52.877 63.1211C56.6204 63.1211 59.5501 61.5911 61.666 58.5312C63.8145 55.4714 64.8887 51.4349 64.8887 46.4219Z"/>
<path d="M90.5723 27.623V35.2891C93.8275 32.457 96.3503 30.4714 98.1406 29.332C99.9635 28.1927 101.477 27.623 102.682 27.623C104.928 27.623 107.092 28.5508 109.176 30.4062L106.49 36.7051C102.714 34.6217 99.9147 33.5801 98.0918 33.5801C96.0736 33.5801 93.5671 35.0124 90.5723 37.877V57.3105C90.5723 59.2637 90.9792 60.582 91.793 61.2656C92.6068 61.9492 94.1693 62.291 96.4805 62.291V64H77.7793V62.291C80.2533 62.291 81.8646 61.9004 82.6133 61.1191C83.3945 60.3379 83.7852 58.4661 83.7852 55.5039V36.2168C83.7852 33.7754 83.362 32.1966 82.5156 31.4805C81.7018 30.7643 79.6836 30.4062 76.4609 30.4062V28.6973L88.8633 27.623H90.5723Z"/>
<path d="M128.854 28.6973V30.4062C126.38 30.4714 125.143 31.1712 125.143 32.5059C125.143 33.1895 125.419 34.2148 125.973 35.582L133.932 55.4062L142.232 34.1172C141.484 32.6523 140.768 31.6758 140.084 31.1875C139.433 30.6992 138.424 30.4388 137.057 30.4062V28.6973H154.146V30.4062C151.119 30.4714 149.605 31.3991 149.605 33.1895C149.605 33.8079 149.785 34.5729 150.143 35.4844L158.053 55.4062L165.328 36.9004C165.914 35.403 166.207 34.2148 166.207 33.3359C166.207 31.4479 164.726 30.4714 161.764 30.4062V28.6973H175.533V30.4062C173.059 30.4062 171.35 30.7969 170.406 31.5781C169.495 32.3268 168.469 34.1009 167.33 36.9004L156.344 64.7812H154.635L143.355 36.9004L132.271 64.7812H130.562L118.16 34.3125C117.118 31.7083 114.954 30.4062 111.666 30.4062V28.6973H128.854Z"/>
<path d="M189.059 65.123C186.292 65.123 183.915 64.2116 181.93 62.3887C179.944 60.5332 178.951 58.3034 178.951 55.6992C178.951 53.2253 179.798 51.1908 181.49 49.5957C183.215 47.9681 186.699 46.4219 191.939 44.957C195.227 44.0456 197.441 43.2643 198.58 42.6133V39.9766C198.58 37.4049 197.864 35.3379 196.432 33.7754C194.999 32.1803 193.079 31.3828 190.67 31.3828C188.489 31.3828 186.552 32.0664 184.859 33.4336C183.167 34.8008 181.979 36.6562 181.295 39L179.488 38.5117C180.204 35.224 181.751 32.5872 184.127 30.6016C186.536 28.6159 189.352 27.623 192.574 27.623C196.383 27.623 199.459 28.7786 201.803 31.0898C204.179 33.3685 205.367 36.5423 205.367 40.6113V55.7969C205.367 57.9453 205.497 59.4102 205.758 60.1914C206.051 60.9401 206.588 61.3145 207.369 61.3145C207.89 61.3145 208.313 61.1029 208.639 60.6797C208.964 60.224 209.339 59.2962 209.762 57.8965H211.471C211.308 60.11 210.608 61.8678 209.371 63.1699C208.167 64.472 206.572 65.123 204.586 65.123C201.689 65.123 199.687 63.4466 198.58 60.0938C196.822 62.0143 195.26 63.3327 193.893 64.0488C192.525 64.765 190.914 65.123 189.059 65.123ZM198.58 56.8223V44.8105C197.571 45.2337 196.106 45.7708 194.186 46.4219C190.637 47.6263 188.359 48.8307 187.35 50.0352C186.373 51.207 185.885 52.8021 185.885 54.8203C185.885 56.5781 186.406 58.1081 187.447 59.4102C188.521 60.6797 189.791 61.3145 191.256 61.3145C192.59 61.3145 193.99 60.8913 195.455 60.0449C196.92 59.166 197.962 58.0918 198.58 56.8223Z"/>
<path d="M227.291 27.623V35.2891C230.546 32.457 233.069 30.4714 234.859 29.332C236.682 28.1927 238.196 27.623 239.4 27.623C241.646 27.623 243.811 28.5508 245.895 30.4062L243.209 36.7051C239.433 34.6217 236.633 33.5801 234.811 33.5801C232.792 33.5801 230.286 35.0124 227.291 37.877V57.3105C227.291 59.2637 227.698 60.582 228.512 61.2656C229.326 61.9492 230.888 62.291 233.199 62.291V64H214.498V62.291C216.972 62.291 218.583 61.9004 219.332 61.1191C220.113 60.3379 220.504 58.4661 220.504 55.5039V36.2168C220.504 33.7754 220.081 32.1966 219.234 31.4805C218.421 30.7643 216.402 30.4062 213.18 30.4062V28.6973L225.582 27.623H227.291Z"/>
<path d="M283.59 1.20703H285.25V57.1152C285.25 59.0684 285.673 60.4193 286.52 61.168C287.366 61.9167 288.912 62.291 291.158 62.291V64H270.553C264.205 64 259.176 62.2585 255.465 58.7754C251.786 55.2923 249.947 50.8978 249.947 45.5918C249.947 40.6113 251.559 36.3796 254.781 32.8965C258.036 29.3809 261.959 27.623 266.549 27.623C270.227 27.623 274.199 29.0553 278.463 31.9199V10.1914C278.463 7.8151 278.154 6.20378 277.535 5.35742C276.917 4.51107 275.663 4.08789 273.775 4.08789H271.773V2.37891L283.59 1.20703ZM278.463 57.0176V35.6797C277.096 33.8242 275.484 32.3757 273.629 31.334C271.806 30.2598 269.983 29.7227 268.16 29.7227C264.938 29.7227 262.333 31.0573 260.348 33.7266C258.362 36.3633 257.369 39.8138 257.369 44.0781C257.369 49.5794 258.72 54.0065 261.422 57.3594C264.156 60.7122 267.965 62.3887 272.848 62.3887C274.833 62.3887 276.266 61.9655 277.145 61.1191C278.023 60.2728 278.463 58.9056 278.463 57.0176Z"/>
</mask>
<path d="M27.4863 31.2852H18.6973V57.0176C18.6973 58.873 19.0879 60.224 19.8691 61.0703C20.6829 61.8841 22.0013 62.291 23.8242 62.291H25.4844V64H5.41602V62.291H6.97852C8.76888 62.291 10.0384 61.9492 10.7871 61.2656C11.5358 60.5495 11.9102 59.3288 11.9102 57.6035V31.2852H6.97852V29.5762C9.25716 28.6647 10.901 27.8672 11.9102 27.1836V20.2012C11.9102 14.6999 13.2611 10.1589 15.9629 6.57812C18.6973 2.9974 22.4082 1.20703 27.0957 1.20703C31.2298 1.20703 34.5664 2.16732 37.1055 4.08789L33.6875 13.0234H31.9785C32.0111 12.5026 32.0273 11.998 32.0273 11.5098C32.0273 8.9056 31.4251 6.88737 30.2207 5.45508C29.0488 4.02279 27.4049 3.30664 25.2891 3.30664C23.2383 3.30664 21.627 4.03906 20.4551 5.50391C19.2832 6.96875 18.6973 9.00325 18.6973 11.6074V28.6973H27.4863V31.2852Z" fill="white"/>
<path d="M72.2617 46.4219C72.2617 51.7604 70.4062 56.2201 66.6953 59.8008C63.0169 63.349 58.4108 65.123 52.877 65.123C47.3431 65.123 42.7207 63.349 39.0098 59.8008C35.3314 56.2201 33.4922 51.7604 33.4922 46.4219C33.4922 41.0182 35.3314 36.5423 39.0098 32.9941C42.6882 29.4134 47.3105 27.623 52.877 27.623C58.4434 27.623 63.0658 29.4134 66.7441 32.9941C70.4225 36.5423 72.2617 41.0182 72.2617 46.4219ZM64.8887 46.4219C64.8887 41.3763 63.8145 37.3073 61.666 34.2148C59.5176 31.1224 56.5879 29.5762 52.877 29.5762C49.166 29.5762 46.2363 31.0898 44.0879 34.1172C41.9395 37.1445 40.8652 41.2461 40.8652 46.4219C40.8652 51.5 41.9232 55.5527 44.0391 58.5801C46.1875 61.6074 49.1335 63.1211 52.877 63.1211C56.6204 63.1211 59.5501 61.5911 61.666 58.5312C63.8145 55.4714 64.8887 51.4349 64.8887 46.4219Z" fill="white"/>
<path d="M90.5723 27.623V35.2891C93.8275 32.457 96.3503 30.4714 98.1406 29.332C99.9635 28.1927 101.477 27.623 102.682 27.623C104.928 27.623 107.092 28.5508 109.176 30.4062L106.49 36.7051C102.714 34.6217 99.9147 33.5801 98.0918 33.5801C96.0736 33.5801 93.5671 35.0124 90.5723 37.877V57.3105C90.5723 59.2637 90.9792 60.582 91.793 61.2656C92.6068 61.9492 94.1693 62.291 96.4805 62.291V64H77.7793V62.291C80.2533 62.291 81.8646 61.9004 82.6133 61.1191C83.3945 60.3379 83.7852 58.4661 83.7852 55.5039V36.2168C83.7852 33.7754 83.362 32.1966 82.5156 31.4805C81.7018 30.7643 79.6836 30.4062 76.4609 30.4062V28.6973L88.8633 27.623H90.5723Z" fill="white"/>
<path d="M128.854 28.6973V30.4062C126.38 30.4714 125.143 31.1712 125.143 32.5059C125.143 33.1895 125.419 34.2148 125.973 35.582L133.932 55.4062L142.232 34.1172C141.484 32.6523 140.768 31.6758 140.084 31.1875C139.433 30.6992 138.424 30.4388 137.057 30.4062V28.6973H154.146V30.4062C151.119 30.4714 149.605 31.3991 149.605 33.1895C149.605 33.8079 149.785 34.5729 150.143 35.4844L158.053 55.4062L165.328 36.9004C165.914 35.403 166.207 34.2148 166.207 33.3359C166.207 31.4479 164.726 30.4714 161.764 30.4062V28.6973H175.533V30.4062C173.059 30.4062 171.35 30.7969 170.406 31.5781C169.495 32.3268 168.469 34.1009 167.33 36.9004L156.344 64.7812H154.635L143.355 36.9004L132.271 64.7812H130.562L118.16 34.3125C117.118 31.7083 114.954 30.4062 111.666 30.4062V28.6973H128.854Z" fill="white"/>
<path d="M189.059 65.123C186.292 65.123 183.915 64.2116 181.93 62.3887C179.944 60.5332 178.951 58.3034 178.951 55.6992C178.951 53.2253 179.798 51.1908 181.49 49.5957C183.215 47.9681 186.699 46.4219 191.939 44.957C195.227 44.0456 197.441 43.2643 198.58 42.6133V39.9766C198.58 37.4049 197.864 35.3379 196.432 33.7754C194.999 32.1803 193.079 31.3828 190.67 31.3828C188.489 31.3828 186.552 32.0664 184.859 33.4336C183.167 34.8008 181.979 36.6562 181.295 39L179.488 38.5117C180.204 35.224 181.751 32.5872 184.127 30.6016C186.536 28.6159 189.352 27.623 192.574 27.623C196.383 27.623 199.459 28.7786 201.803 31.0898C204.179 33.3685 205.367 36.5423 205.367 40.6113V55.7969C205.367 57.9453 205.497 59.4102 205.758 60.1914C206.051 60.9401 206.588 61.3145 207.369 61.3145C207.89 61.3145 208.313 61.1029 208.639 60.6797C208.964 60.224 209.339 59.2962 209.762 57.8965H211.471C211.308 60.11 210.608 61.8678 209.371 63.1699C208.167 64.472 206.572 65.123 204.586 65.123C201.689 65.123 199.687 63.4466 198.58 60.0938C196.822 62.0143 195.26 63.3327 193.893 64.0488C192.525 64.765 190.914 65.123 189.059 65.123ZM198.58 56.8223V44.8105C197.571 45.2337 196.106 45.7708 194.186 46.4219C190.637 47.6263 188.359 48.8307 187.35 50.0352C186.373 51.207 185.885 52.8021 185.885 54.8203C185.885 56.5781 186.406 58.1081 187.447 59.4102C188.521 60.6797 189.791 61.3145 191.256 61.3145C192.59 61.3145 193.99 60.8913 195.455 60.0449C196.92 59.166 197.962 58.0918 198.58 56.8223Z" fill="white"/>
<path d="M227.291 27.623V35.2891C230.546 32.457 233.069 30.4714 234.859 29.332C236.682 28.1927 238.196 27.623 239.4 27.623C241.646 27.623 243.811 28.5508 245.895 30.4062L243.209 36.7051C239.433 34.6217 236.633 33.5801 234.811 33.5801C232.792 33.5801 230.286 35.0124 227.291 37.877V57.3105C227.291 59.2637 227.698 60.582 228.512 61.2656C229.326 61.9492 230.888 62.291 233.199 62.291V64H214.498V62.291C216.972 62.291 218.583 61.9004 219.332 61.1191C220.113 60.3379 220.504 58.4661 220.504 55.5039V36.2168C220.504 33.7754 220.081 32.1966 219.234 31.4805C218.421 30.7643 216.402 30.4062 213.18 30.4062V28.6973L225.582 27.623H227.291Z" fill="white"/>
<path d="M283.59 1.20703H285.25V57.1152C285.25 59.0684 285.673 60.4193 286.52 61.168C287.366 61.9167 288.912 62.291 291.158 62.291V64H270.553C264.205 64 259.176 62.2585 255.465 58.7754C251.786 55.2923 249.947 50.8978 249.947 45.5918C249.947 40.6113 251.559 36.3796 254.781 32.8965C258.036 29.3809 261.959 27.623 266.549 27.623C270.227 27.623 274.199 29.0553 278.463 31.9199V10.1914C278.463 7.8151 278.154 6.20378 277.535 5.35742C276.917 4.51107 275.663 4.08789 273.775 4.08789H271.773V2.37891L283.59 1.20703ZM278.463 57.0176V35.6797C277.096 33.8242 275.484 32.3757 273.629 31.334C271.806 30.2598 269.983 29.7227 268.16 29.7227C264.938 29.7227 262.333 31.0573 260.348 33.7266C258.362 36.3633 257.369 39.8138 257.369 44.0781C257.369 49.5794 258.72 54.0065 261.422 57.3594C264.156 60.7122 267.965 62.3887 272.848 62.3887C274.833 62.3887 276.266 61.9655 277.145 61.1191C278.023 60.2728 278.463 58.9056 278.463 57.0176Z" fill="white"/>
<path d="M27.4863 31.2852H18.6973V57.0176C18.6973 58.873 19.0879 60.224 19.8691 61.0703C20.6829 61.8841 22.0013 62.291 23.8242 62.291H25.4844V64H5.41602V62.291H6.97852C8.76888 62.291 10.0384 61.9492 10.7871 61.2656C11.5358 60.5495 11.9102 59.3288 11.9102 57.6035V31.2852H6.97852V29.5762C9.25716 28.6647 10.901 27.8672 11.9102 27.1836V20.2012C11.9102 14.6999 13.2611 10.1589 15.9629 6.57812C18.6973 2.9974 22.4082 1.20703 27.0957 1.20703C31.2298 1.20703 34.5664 2.16732 37.1055 4.08789L33.6875 13.0234H31.9785C32.0111 12.5026 32.0273 11.998 32.0273 11.5098C32.0273 8.9056 31.4251 6.88737 30.2207 5.45508C29.0488 4.02279 27.4049 3.30664 25.2891 3.30664C23.2383 3.30664 21.627 4.03906 20.4551 5.50391C19.2832 6.96875 18.6973 9.00325 18.6973 11.6074V28.6973H27.4863V31.2852Z" stroke="black" stroke-width="2" mask="url(#path-1-outside-1)"/>
<path d="M72.2617 46.4219C72.2617 51.7604 70.4062 56.2201 66.6953 59.8008C63.0169 63.349 58.4108 65.123 52.877 65.123C47.3431 65.123 42.7207 63.349 39.0098 59.8008C35.3314 56.2201 33.4922 51.7604 33.4922 46.4219C33.4922 41.0182 35.3314 36.5423 39.0098 32.9941C42.6882 29.4134 47.3105 27.623 52.877 27.623C58.4434 27.623 63.0658 29.4134 66.7441 32.9941C70.4225 36.5423 72.2617 41.0182 72.2617 46.4219ZM64.8887 46.4219C64.8887 41.3763 63.8145 37.3073 61.666 34.2148C59.5176 31.1224 56.5879 29.5762 52.877 29.5762C49.166 29.5762 46.2363 31.0898 44.0879 34.1172C41.9395 37.1445 40.8652 41.2461 40.8652 46.4219C40.8652 51.5 41.9232 55.5527 44.0391 58.5801C46.1875 61.6074 49.1335 63.1211 52.877 63.1211C56.6204 63.1211 59.5501 61.5911 61.666 58.5312C63.8145 55.4714 64.8887 51.4349 64.8887 46.4219Z" stroke="black" stroke-width="2" mask="url(#path-1-outside-1)"/>
<path d="M90.5723 27.623V35.2891C93.8275 32.457 96.3503 30.4714 98.1406 29.332C99.9635 28.1927 101.477 27.623 102.682 27.623C104.928 27.623 107.092 28.5508 109.176 30.4062L106.49 36.7051C102.714 34.6217 99.9147 33.5801 98.0918 33.5801C96.0736 33.5801 93.5671 35.0124 90.5723 37.877V57.3105C90.5723 59.2637 90.9792 60.582 91.793 61.2656C92.6068 61.9492 94.1693 62.291 96.4805 62.291V64H77.7793V62.291C80.2533 62.291 81.8646 61.9004 82.6133 61.1191C83.3945 60.3379 83.7852 58.4661 83.7852 55.5039V36.2168C83.7852 33.7754 83.362 32.1966 82.5156 31.4805C81.7018 30.7643 79.6836 30.4062 76.4609 30.4062V28.6973L88.8633 27.623H90.5723Z" stroke="black" stroke-width="2" mask="url(#path-1-outside-1)"/>
<path d="M128.854 28.6973V30.4062C126.38 30.4714 125.143 31.1712 125.143 32.5059C125.143 33.1895 125.419 34.2148 125.973 35.582L133.932 55.4062L142.232 34.1172C141.484 32.6523 140.768 31.6758 140.084 31.1875C139.433 30.6992 138.424 30.4388 137.057 30.4062V28.6973H154.146V30.4062C151.119 30.4714 149.605 31.3991 149.605 33.1895C149.605 33.8079 149.785 34.5729 150.143 35.4844L158.053 55.4062L165.328 36.9004C165.914 35.403 166.207 34.2148 166.207 33.3359C166.207 31.4479 164.726 30.4714 161.764 30.4062V28.6973H175.533V30.4062C173.059 30.4062 171.35 30.7969 170.406 31.5781C169.495 32.3268 168.469 34.1009 167.33 36.9004L156.344 64.7812H154.635L143.355 36.9004L132.271 64.7812H130.562L118.16 34.3125C117.118 31.7083 114.954 30.4062 111.666 30.4062V28.6973H128.854Z" stroke="black" stroke-width="2" mask="url(#path-1-outside-1)"/>
<path d="M189.059 65.123C186.292 65.123 183.915 64.2116 181.93 62.3887C179.944 60.5332 178.951 58.3034 178.951 55.6992C178.951 53.2253 179.798 51.1908 181.49 49.5957C183.215 47.9681 186.699 46.4219 191.939 44.957C195.227 44.0456 197.441 43.2643 198.58 42.6133V39.9766C198.58 37.4049 197.864 35.3379 196.432 33.7754C194.999 32.1803 193.079 31.3828 190.67 31.3828C188.489 31.3828 186.552 32.0664 184.859 33.4336C183.167 34.8008 181.979 36.6562 181.295 39L179.488 38.5117C180.204 35.224 181.751 32.5872 184.127 30.6016C186.536 28.6159 189.352 27.623 192.574 27.623C196.383 27.623 199.459 28.7786 201.803 31.0898C204.179 33.3685 205.367 36.5423 205.367 40.6113V55.7969C205.367 57.9453 205.497 59.4102 205.758 60.1914C206.051 60.9401 206.588 61.3145 207.369 61.3145C207.89 61.3145 208.313 61.1029 208.639 60.6797C208.964 60.224 209.339 59.2962 209.762 57.8965H211.471C211.308 60.11 210.608 61.8678 209.371 63.1699C208.167 64.472 206.572 65.123 204.586 65.123C201.689 65.123 199.687 63.4466 198.58 60.0938C196.822 62.0143 195.26 63.3327 193.893 64.0488C192.525 64.765 190.914 65.123 189.059 65.123ZM198.58 56.8223V44.8105C197.571 45.2337 196.106 45.7708 194.186 46.4219C190.637 47.6263 188.359 48.8307 187.35 50.0352C186.373 51.207 185.885 52.8021 185.885 54.8203C185.885 56.5781 186.406 58.1081 187.447 59.4102C188.521 60.6797 189.791 61.3145 191.256 61.3145C192.59 61.3145 193.99 60.8913 195.455 60.0449C196.92 59.166 197.962 58.0918 198.58 56.8223Z" stroke="black" stroke-width="2" mask="url(#path-1-outside-1)"/>
<path d="M227.291 27.623V35.2891C230.546 32.457 233.069 30.4714 234.859 29.332C236.682 28.1927 238.196 27.623 239.4 27.623C241.646 27.623 243.811 28.5508 245.895 30.4062L243.209 36.7051C239.433 34.6217 236.633 33.5801 234.811 33.5801C232.792 33.5801 230.286 35.0124 227.291 37.877V57.3105C227.291 59.2637 227.698 60.582 228.512 61.2656C229.326 61.9492 230.888 62.291 233.199 62.291V64H214.498V62.291C216.972 62.291 218.583 61.9004 219.332 61.1191C220.113 60.3379 220.504 58.4661 220.504 55.5039V36.2168C220.504 33.7754 220.081 32.1966 219.234 31.4805C218.421 30.7643 216.402 30.4062 213.18 30.4062V28.6973L225.582 27.623H227.291Z" stroke="black" stroke-width="2" mask="url(#path-1-outside-1)"/>
<path d="M283.59 1.20703H285.25V57.1152C285.25 59.0684 285.673 60.4193 286.52 61.168C287.366 61.9167 288.912 62.291 291.158 62.291V64H270.553C264.205 64 259.176 62.2585 255.465 58.7754C251.786 55.2923 249.947 50.8978 249.947 45.5918C249.947 40.6113 251.559 36.3796 254.781 32.8965C258.036 29.3809 261.959 27.623 266.549 27.623C270.227 27.623 274.199 29.0553 278.463 31.9199V10.1914C278.463 7.8151 278.154 6.20378 277.535 5.35742C276.917 4.51107 275.663 4.08789 273.775 4.08789H271.773V2.37891L283.59 1.20703ZM278.463 57.0176V35.6797C277.096 33.8242 275.484 32.3757 273.629 31.334C271.806 30.2598 269.983 29.7227 268.16 29.7227C264.938 29.7227 262.333 31.0573 260.348 33.7266C258.362 36.3633 257.369 39.8138 257.369 44.0781C257.369 49.5794 258.72 54.0065 261.422 57.3594C264.156 60.7122 267.965 62.3887 272.848 62.3887C274.833 62.3887 276.266 61.9655 277.145 61.1191C278.023 60.2728 278.463 58.9056 278.463 57.0176Z" stroke="black" stroke-width="2" mask="url(#path-1-outside-1)"/>
</g>
<defs>
<filter id="filter0_d" x="0.416016" y="0.207031" width="295.742" height="73.916" filterUnits="userSpaceOnUse" color-interpolation-filters="sRGB">
<feFlood flood-opacity="0" result="BackgroundImageFix"/>
<feColorMatrix in="SourceAlpha" type="matrix" values="0 0 0 0 0 0 0 0 0 0 0 0 0 0 0 0 0 0 127 0"/>
<feOffset dy="4"/>
<feGaussianBlur stdDeviation="2"/>
<feColorMatrix type="matrix" values="0 0 0 0 0 0 0 0 0 0 0 0 0 0 0 0 0 0 0.25 0"/>
<feBlend mode="normal" in2="BackgroundImageFix" result="effect1_dropShadow"/>
<feBlend mode="normal" in="SourceGraphic" in2="effect1_dropShadow" result="shape"/>
</filter>
</defs>
</svg>
