<svg width="683" height="115" viewBox="0 0 683 115" fill="none" xmlns="http://www.w3.org/2000/svg">
<path d="M292.383 94.5V89.5195H344.141V94.5H292.383ZM342.383 94.5V89.5195H394.141V94.5H342.383ZM392.383 94.5V89.5195H444.141V94.5H392.383ZM442.383 94.5V89.5195H494.141V94.5H442.383ZM492.383 94.5V89.5195H544.141V94.5H492.383ZM542.383 94.5V89.5195H594.141V94.5H542.383ZM592.383 94.5V89.5195H644.141V94.5H592.383ZM642.383 94.5V89.5195H694.141V94.5H642.383ZM692.383 94.5V89.5195H744.141V94.5H692.383ZM742.383 94.5V89.5195H794.141V94.5H742.383ZM792.383 94.5V89.5195H844.141V94.5H792.383ZM842.383 94.5V89.5195H894.141V94.5H842.383ZM892.383 94.5V89.5195H944.141V94.5H892.383ZM942.383 94.5V89.5195H994.141V94.5H942.383ZM992.383 94.5V89.5195H1044.14V94.5H992.383ZM1042.38 94.5V89.5195H1094.14V94.5H1042.38ZM1092.38 94.5V89.5195H1144.14V94.5H1092.38ZM1142.38 94.5V89.5195H1194.14V94.5H1142.38ZM1192.38 94.5V89.5195H1244.14V94.5H1192.38Z" fill="white"/>
</svg>
