<svg width="474" height="67" viewBox="0 0 474 67" fill="none" xmlns="http://www.w3.org/2000/svg">
<path d="M17.6035 1.69727V3.40625C15.1296 3.47135 13.8926 4.17122 13.8926 5.50586C13.8926 6.18945 14.1693 7.21484 14.7227 8.58203L22.6816 28.4062L30.9824 7.11719C30.2337 5.65234 29.5176 4.67578 28.834 4.1875C28.1829 3.69922 27.1738 3.4388 25.8066 3.40625V1.69727H42.8965V3.40625C39.8691 3.47135 38.3555 4.39909 38.3555 6.18945C38.3555 6.80794 38.5345 7.57292 38.8926 8.48438L46.8027 28.4062L54.0781 9.90039C54.6641 8.40299 54.957 7.21484 54.957 6.33594C54.957 4.44792 53.4759 3.47135 50.5137 3.40625V1.69727H64.2832V3.40625C61.8092 3.40625 60.1003 3.79688 59.1562 4.57812C58.2448 5.32682 57.2194 7.10091 56.0801 9.90039L45.0938 37.7812H43.3848L32.1055 9.90039L21.0215 37.7812H19.3125L6.91016 7.3125C5.86849 4.70833 3.70378 3.40625 0.416016 3.40625V1.69727H17.6035Z" fill="black"/>
<path d="M99.4883 27.918V30.5059C97.3398 33.2402 95.1426 35.1934 92.8965 36.3652C90.6829 37.5371 88.0137 38.123 84.8887 38.123C79.3548 38.123 74.7812 36.3978 71.168 32.9473C67.5872 29.4642 65.7969 25.0534 65.7969 19.7148C65.7969 14.3438 67.5059 9.81901 70.9238 6.14062C74.3744 2.46224 78.5898 0.623047 83.5703 0.623047C87.6719 0.623047 91.2526 2.00651 94.3125 4.77344C97.3724 7.54036 98.9023 10.8444 98.9023 14.6855V15.418H72.877V15.9062C72.877 19.8125 73.4629 23.2142 74.6348 26.1113C75.8392 28.9759 77.5807 31.222 79.8594 32.8496C82.138 34.4772 84.5143 35.291 86.9883 35.291C89.2995 35.291 91.2689 34.819 92.8965 33.875C94.5566 32.8984 96.7539 30.9128 99.4883 27.918ZM72.877 13.709H92.1641V13.0254C92.1641 9.86784 91.2526 7.36133 89.4297 5.50586C87.6393 3.65039 85.3932 2.72266 82.6914 2.72266C79.8268 2.72266 77.5156 3.69922 75.7578 5.65234C74.0326 7.60547 73.0723 10.291 72.877 13.709Z" fill="black"/>
<path d="M140.064 0.623047V7.99609H140.26C141.725 5.75 143.596 3.95964 145.875 2.625C148.186 1.29036 150.514 0.623047 152.857 0.623047C155.429 0.623047 157.708 1.33919 159.693 2.77148C161.712 4.17122 163.144 6.10807 163.99 8.58203C167.766 3.27604 172.128 0.623047 177.076 0.623047C180.527 0.623047 183.391 1.69727 185.67 3.8457C187.949 5.96159 189.088 8.875 189.088 12.5859V30.4082C189.088 32.3288 189.511 33.6309 190.357 34.3145C191.204 34.9655 192.766 35.291 195.045 35.291V37H176.246V35.291C178.818 35.291 180.462 34.8841 181.178 34.0703C181.894 33.224 182.252 31.3685 182.252 28.5039V11.707C182.252 9.42839 181.568 7.63802 180.201 6.33594C178.834 5.03385 176.962 4.38281 174.586 4.38281C170.875 4.38281 167.538 6.66146 164.576 11.2188V30.2129C164.576 32.1986 164.999 33.5495 165.846 34.2656C166.692 34.9492 168.238 35.291 170.484 35.291V37H151.881V35.291C154.55 35.291 156.194 34.8678 156.812 34.0215C157.464 33.1751 157.789 31.3359 157.789 28.5039V12.0977C157.789 9.75391 157.089 7.88216 155.689 6.48242C154.29 5.08268 152.483 4.38281 150.27 4.38281C148.349 4.38281 146.461 5.0013 144.605 6.23828C142.783 7.47526 141.269 9.13542 140.064 11.2188V30.5059C140.064 32.3288 140.504 33.5983 141.383 34.3145C142.262 35.0306 143.824 35.3887 146.07 35.3887V37H127.271V35.291C129.876 35.291 131.52 34.8841 132.203 34.0703C132.919 33.2565 133.277 31.7591 133.277 29.5781V8.58203C133.277 6.75911 132.887 5.44076 132.105 4.62695C131.357 3.81315 130.104 3.40625 128.346 3.40625H126.148V1.69727L138.355 0.623047H140.064Z" fill="black"/>
<path d="M239.625 19.4219C239.625 24.7604 237.77 29.2201 234.059 32.8008C230.38 36.349 225.774 38.123 220.24 38.123C214.706 38.123 210.084 36.349 206.373 32.8008C202.695 29.2201 200.855 24.7604 200.855 19.4219C200.855 14.0182 202.695 9.54232 206.373 5.99414C210.051 2.41341 214.674 0.623047 220.24 0.623047C225.807 0.623047 230.429 2.41341 234.107 5.99414C237.786 9.54232 239.625 14.0182 239.625 19.4219ZM232.252 19.4219C232.252 14.3763 231.178 10.3073 229.029 7.21484C226.881 4.1224 223.951 2.57617 220.24 2.57617C216.529 2.57617 213.6 4.08984 211.451 7.11719C209.303 10.1445 208.229 14.2461 208.229 19.4219C208.229 24.5 209.286 28.5527 211.402 31.5801C213.551 34.6074 216.497 36.1211 220.24 36.1211C223.984 36.1211 226.913 34.5911 229.029 31.5312C231.178 28.4714 232.252 24.4349 232.252 19.4219Z" fill="black"/>
<path d="M258.814 1.69727V3.40625C256.503 3.60156 255.348 4.57812 255.348 6.33594C255.348 7.18229 255.608 8.24023 256.129 9.50977L263.99 28.4062L270.924 10.4863C271.64 8.69596 271.998 7.34505 271.998 6.43359C271.998 4.64323 270.468 3.63411 267.408 3.40625V1.69727H280.396V3.40625C278.281 3.60156 276.799 4.02474 275.953 4.67578C275.139 5.32682 274.358 6.59635 273.609 8.48438L262.232 37.7812H260.523L249.195 9.99805C248.056 7.23112 247.063 5.47331 246.217 4.72461C245.403 3.94336 243.906 3.50391 241.725 3.40625V1.69727H258.814Z" fill="black"/>
<path d="M317.066 27.918V30.5059C314.918 33.2402 312.721 35.1934 310.475 36.3652C308.261 37.5371 305.592 38.123 302.467 38.123C296.933 38.123 292.359 36.3978 288.746 32.9473C285.165 29.4642 283.375 25.0534 283.375 19.7148C283.375 14.3438 285.084 9.81901 288.502 6.14062C291.952 2.46224 296.168 0.623047 301.148 0.623047C305.25 0.623047 308.831 2.00651 311.891 4.77344C314.951 7.54036 316.48 10.8444 316.48 14.6855V15.418H290.455V15.9062C290.455 19.8125 291.041 23.2142 292.213 26.1113C293.417 28.9759 295.159 31.222 297.438 32.8496C299.716 34.4772 302.092 35.291 304.566 35.291C306.878 35.291 308.847 34.819 310.475 33.875C312.135 32.8984 314.332 30.9128 317.066 27.918ZM290.455 13.709H309.742V13.0254C309.742 9.86784 308.831 7.36133 307.008 5.50586C305.217 3.65039 302.971 2.72266 300.27 2.72266C297.405 2.72266 295.094 3.69922 293.336 5.65234C291.611 7.60547 290.65 10.291 290.455 13.709Z" fill="black"/>
<path d="M361.549 1.69727V3.40625C359.531 3.69922 358.521 4.72461 358.521 6.48242C358.521 7.16602 358.701 7.93099 359.059 8.77734L367.555 28.7969L373.756 10.0957C374.244 8.56576 374.488 7.34505 374.488 6.43359C374.488 4.54557 373.3 3.53646 370.924 3.40625V1.69727H383.424V3.40625C381.536 3.40625 379.973 4.05729 378.736 5.35938C377.499 6.62891 376.376 8.74479 375.367 11.707L361.256 53.4062C359.889 57.3776 358.147 60.5189 356.031 62.8301C353.915 65.1413 351.751 66.2969 349.537 66.2969C348.235 66.2969 346.77 65.7923 345.143 64.7832L347.438 58.6797C348.674 59.2331 349.814 59.5098 350.855 59.5098C352.971 59.5098 354.713 58.8424 356.08 57.5078C357.48 56.1732 358.733 53.9434 359.84 50.8184L364.43 37.9766L351.734 8.67969C350.79 6.5638 349.846 5.16406 348.902 4.48047C347.991 3.79688 346.542 3.4388 344.557 3.40625V1.69727H361.549Z" fill="black"/>
<path d="M425.367 19.4219C425.367 24.7604 423.512 29.2201 419.801 32.8008C416.122 36.349 411.516 38.123 405.982 38.123C400.449 38.123 395.826 36.349 392.115 32.8008C388.437 29.2201 386.598 24.7604 386.598 19.4219C386.598 14.0182 388.437 9.54232 392.115 5.99414C395.794 2.41341 400.416 0.623047 405.982 0.623047C411.549 0.623047 416.171 2.41341 419.85 5.99414C423.528 9.54232 425.367 14.0182 425.367 19.4219ZM417.994 19.4219C417.994 14.3763 416.92 10.3073 414.771 7.21484C412.623 4.1224 409.693 2.57617 405.982 2.57617C402.271 2.57617 399.342 4.08984 397.193 7.11719C395.045 10.1445 393.971 14.2461 393.971 19.4219C393.971 24.5 395.029 28.5527 397.145 31.5801C399.293 34.6074 402.239 36.1211 405.982 36.1211C409.726 36.1211 412.656 34.5911 414.771 31.5312C416.92 28.4714 417.994 24.4349 417.994 19.4219Z" fill="black"/>
<path d="M465.699 0.623047H467.359V30.3105C467.359 32.2637 467.766 33.582 468.58 34.2656C469.426 34.9492 471.054 35.291 473.463 35.291V37L460.572 37.6836V31.1895H460.377C456.829 35.8118 452.695 38.123 447.975 38.123C444.589 38.123 441.806 37 439.625 34.7539C437.477 32.4753 436.402 29.627 436.402 26.209V8.09375C436.402 6.27083 435.947 5.03385 435.035 4.38281C434.124 3.73177 432.48 3.40625 430.104 3.40625V1.69727L441.48 0.623047H443.189V25.916C443.189 28.39 443.906 30.3431 445.338 31.7754C446.803 33.2077 448.756 33.9238 451.197 33.9238C454.583 33.9238 457.708 31.987 460.572 28.1133V9.02148C460.572 6.58008 460.198 5.05013 459.449 4.43164C458.701 3.81315 456.78 3.47135 453.688 3.40625V1.69727L465.699 0.623047Z" fill="black"/>
</svg>
