<svg width="181" height="31" viewBox="0 0 181 31" fill="none" xmlns="http://www.w3.org/2000/svg">
<g id="Group">
<g id="Group_2">
<path id="Vector" d="M110.429 22.5379C110.996 22.9758 111.821 23.2337 112.825 23.2337C116.098 23.2337 118.365 18.5954 118.365 15.4258C118.365 13.957 117.798 12.3082 115.969 12.3082C114.217 12.3082 111.923 14.5498 111.228 18.2862L110.429 22.5379ZM108.11 29.2747L110.584 15.9772C110.893 14.3537 111.125 12.9296 111.279 11.5954H112.336L111.949 14.2639H112.001C113.109 12.5961 114.655 11.4179 116.304 11.4179C118.649 11.4179 119.525 13.3576 119.525 15.3931C119.525 19.5674 116.665 24.3678 112.722 24.3678C111.511 24.3678 110.712 23.9375 110.248 23.9375H110.197L109.218 29.2747H108.11Z" fill="white"/>
</g>
<g id="Group_3">
<path id="Vector_2" d="M129.574 12.4902C129.291 12.3868 128.853 12.3098 128.079 12.3098C124.523 12.3098 121.74 16.2776 121.715 20.1688C121.689 21.7922 122.153 23.2353 123.828 23.2353C125.838 23.2353 128.105 20.2205 128.698 17.0248L129.574 12.4902ZM127.925 24.2727C127.899 23.272 128.054 22.2713 128.234 20.937H128.182C126.765 23.6055 125.194 24.3664 123.57 24.3664C121.689 24.3664 120.555 22.7443 120.555 20.5283C120.555 16.3023 123.57 11.3684 128.363 11.3684C129.239 11.3684 130.218 11.4782 130.862 11.71L129.548 18.5069C129.11 20.8259 128.956 22.9384 129.007 24.2727H127.925Z" fill="white"/>
</g>
<g id="Group_4">
<path id="Vector_3" d="M131.66 24.2719L133.232 15.7951C133.541 14.2233 133.722 12.9304 133.825 11.5961H134.83C134.752 12.5968 134.649 13.264 134.494 14.5982H134.546C135.293 12.9304 136.53 11.4823 138.076 11.4823C138.231 11.4823 138.411 11.4316 138.54 11.4316L138.308 12.5788C138.205 12.5531 138.076 12.5341 137.896 12.5341C136.272 12.5341 134.469 15.1303 133.953 17.8359L132.768 24.2719H131.66Z" fill="white"/>
</g>
<g id="Group_5">
<path id="Vector_4" d="M143.618 8.88487L143.077 11.5951H145.988L145.782 12.5959H142.871L141.505 19.9375C141.35 20.7617 141.247 21.3922 141.247 22.062C141.247 22.7835 141.582 23.2145 142.355 23.2145C142.767 23.2145 143.025 23.1855 143.257 23.1077L143.334 24.0081C142.999 24.1111 142.561 24.1878 142.123 24.1878C140.654 24.1878 140.088 23.2081 140.088 22.1774C140.088 21.5073 140.165 20.8912 140.371 19.9375L141.762 12.5959H139.984L140.165 11.5951H141.969L142.381 9.37689L143.618 8.88487Z" fill="white"/>
</g>
<g id="Group_6">
<path id="Vector_5" d="M145.831 24.2731L147.48 15.3841C147.763 13.9157 147.918 12.5981 148.021 11.5974H149.077L148.717 14.266H148.768C149.851 12.5981 151.397 11.4069 153.097 11.4069C154.308 11.4069 155.855 12.1421 155.855 14.4868C155.855 15.1052 155.752 15.8624 155.622 16.5326L154.205 24.2731H153.097L154.54 16.5136C154.643 15.9468 154.721 15.275 154.721 14.6309C154.721 13.3426 154.205 12.3753 152.685 12.3753C151.036 12.3753 148.691 14.5748 148.15 17.564L146.939 24.2731H145.831Z" fill="white"/>
</g>
<g id="Group_7">
<path id="Vector_6" d="M165.33 14.0616C165.33 12.9275 164.535 12.3094 163.375 12.3094C161.468 12.3094 159.778 14.3705 159.006 17.0508C162.226 17.0765 165.33 16.5354 165.33 14.0873V14.0616ZM164.795 23.2606C164.151 23.6985 162.966 24.1882 161.42 24.1882C158.534 24.1882 157.529 21.9206 157.529 19.5499C157.529 15.994 160.028 11.33 163.558 11.33C165.594 11.33 166.445 12.6443 166.445 14.0359C166.445 17.1792 162.837 18.0552 158.791 18.0295C158.663 18.5965 158.637 20.22 158.894 21.122C159.333 22.5134 160.286 23.2089 161.6 23.2089C162.966 23.2089 163.894 22.7195 164.46 22.3846L164.795 23.2606Z" fill="white"/>
</g>
<g id="Group_8">
<path id="Vector_7" d="M167.194 24.2719L168.766 15.7951C169.075 14.2233 169.255 12.9304 169.359 11.5961H170.363C170.286 12.5968 170.183 13.264 170.028 14.5982H170.08C170.827 12.9304 172.064 11.4823 173.61 11.4823C173.764 11.4823 173.945 11.4316 174.074 11.4316L173.842 12.5788C173.739 12.5531 173.61 12.5341 173.43 12.5341C171.806 12.5341 170.003 15.1303 169.487 17.8359L168.302 24.2719H167.194Z" fill="white"/>
</g>
<g id="Group_9">
<path id="Vector_8" d="M173.687 22.5134C174.125 22.8483 174.95 23.2089 175.852 23.2089C177.475 23.2089 178.583 22.0494 178.583 20.6323C178.583 19.3955 178.068 18.6483 176.908 17.9007C175.671 17.1021 175.001 15.994 175.001 14.8345C175.001 12.9018 176.573 11.33 178.763 11.33C179.614 11.33 180.438 11.5879 180.799 11.8711L180.387 12.8247C180 12.5926 179.356 12.3094 178.635 12.3094C177.14 12.3094 176.135 13.3658 176.135 14.6284C176.135 15.7879 176.805 16.432 177.81 17.1278C178.995 17.9267 179.717 19.0602 179.717 20.3228C179.717 22.8222 177.887 24.1882 175.749 24.1882C174.64 24.1882 173.661 23.7759 173.249 23.441L173.687 22.5134Z" fill="white"/>
</g>
<g id="Group_10">
<path id="Vector_9" d="M10.4374 9.74818C10.4134 9.74818 10.389 9.74651 10.364 9.74284C10.0811 9.70315 9.84463 9.44763 9.83563 9.17177C9.82695 8.90191 9.6625 2.54601 13.3898 1.09998C14.3305 0.735047 15.1851 0.817106 15.9293 1.34415C16.824 1.97727 17.4764 3.22784 17.8687 5.06082C18.1456 6.35675 18.1906 7.47288 18.1926 7.51991C18.203 7.79578 17.9821 7.98858 17.6993 7.95056C17.4164 7.9122 17.1789 7.65735 17.1682 7.38148C17.1239 6.22999 16.7252 3.04237 15.4326 2.12838C15.0187 1.8355 14.518 1.80982 13.9015 2.04866C10.7063 3.28788 10.858 9.25549 10.86 9.31554C10.868 9.56705 10.6839 9.74818 10.4374 9.74818Z" fill="#95BF47"/>
</g>
<g id="Group_11">
<path id="Vector_10" d="M18.3972 3.49386L3.98114 7.95773C3.98114 7.95773 3.3627 8.13352 3.21726 8.30765C3.05815 8.49845 3.02746 9.01415 3.02746 9.01415L0.799194 26.2022L17.5279 29.3364L18.8158 3.47918C18.6313 3.44316 18.4429 3.48285 18.3972 3.49386Z" fill="#95BF47"/>
</g>
<g id="Group_12">
<path id="Vector_11" d="M23.3927 5.71647C23.3927 5.71647 23.3683 5.58404 23.2933 5.53601C23.2185 5.48764 23.1365 5.4783 23.1365 5.4783L20.7754 5.30217L19.0379 3.57593C18.9728 3.52523 18.8964 3.49588 18.8184 3.48087L17.5305 29.3381L26.5946 27.376L23.3927 5.71647Z" fill="#5F8E3E"/>
</g>
<g id="Group_13">
<path id="Vector_12" d="M12.4429 17.8606C12.1864 17.5154 11.8878 17.2122 11.5726 16.9433C11.262 16.6785 10.9351 16.4476 10.6156 16.2428C10.3874 16.1007 10.1899 15.9633 10.0221 15.8289C9.85603 15.6954 9.7186 15.564 9.61052 15.4326C9.50278 15.3018 9.42372 15.1704 9.37302 15.0356C9.32265 14.9012 9.3003 14.7634 9.3063 14.6197C9.31498 14.4255 9.35801 14.2497 9.43173 14.0946C9.50578 13.9385 9.61119 13.8031 9.74395 13.6897C9.87771 13.5759 10.0398 13.4842 10.2263 13.4175C10.4148 13.3504 10.6289 13.3084 10.8651 13.2944C11.1223 13.2794 11.3708 13.2874 11.6073 13.3117C11.8465 13.3364 12.073 13.3778 12.2834 13.4295C12.4959 13.4815 12.6921 13.5439 12.8679 13.6093C13.0457 13.675 13.2024 13.744 13.3352 13.8084L14.451 10.4837C14.2852 10.399 14.0837 10.3209 13.8516 10.2555C13.6211 10.1901 13.3612 10.1371 13.076 10.1008C12.7941 10.0651 12.4886 10.0457 12.163 10.047C11.8425 10.0487 11.5035 10.0704 11.15 10.1168C10.3887 10.2165 9.70092 10.427 9.10015 10.7272C8.51574 11.0194 8.00904 11.3983 7.59207 11.848C7.18311 12.2887 6.85755 12.8007 6.62738 13.3711C6.39988 13.9358 6.26379 14.563 6.2341 15.2434C6.21642 15.6501 6.25745 16.024 6.34585 16.3689C6.43458 16.7155 6.57167 17.0351 6.74613 17.3299C6.92259 17.6281 7.13741 17.9023 7.37992 18.1562C7.62543 18.413 7.89963 18.6492 8.19084 18.8664C8.42867 19.0402 8.62915 19.2036 8.79627 19.3624C8.96472 19.5222 9.09815 19.6766 9.20123 19.8307C9.3043 19.9858 9.37569 20.14 9.41938 20.2994C9.46342 20.4592 9.47909 20.6233 9.47175 20.7981C9.46408 20.9722 9.42672 21.1353 9.36001 21.2801C9.29396 21.4242 9.19889 21.55 9.07647 21.6494C8.95438 21.7481 8.80561 21.8205 8.63115 21.8599C8.45803 21.8989 8.25989 21.9056 8.03839 21.8729C7.78788 21.8358 7.5347 21.7634 7.28886 21.6694C7.04601 21.576 6.80985 21.4616 6.58902 21.3385C6.37086 21.2164 6.16705 21.0856 5.98559 20.9579C5.80613 20.8318 5.64835 20.708 5.51959 20.5993L4.75537 23.1341C4.8818 23.2962 5.04324 23.4583 5.23271 23.6148C5.42452 23.7729 5.64601 23.926 5.89052 24.0684C6.13836 24.2129 6.41089 24.3463 6.70077 24.4637C6.99531 24.5828 7.30854 24.6849 7.6331 24.7636C7.63877 24.7646 7.64411 24.7659 7.64945 24.7673C7.65512 24.7686 7.66079 24.7699 7.66613 24.7709C7.67146 24.7723 7.6768 24.7736 7.68247 24.7746C7.68781 24.7759 7.69348 24.7769 7.69882 24.7783C8.39098 24.9314 9.06279 24.9684 9.68891 24.8847C10.3337 24.7986 10.9265 24.5841 11.4385 24.2382C11.9619 23.8846 12.3962 23.397 12.7111 22.7758C13.03 22.1471 13.2228 21.3888 13.2611 20.5092C13.2845 19.9715 13.2101 19.4831 13.0633 19.0408C12.9179 18.6015 12.7024 18.2102 12.4429 17.8606Z" fill="white"/>
</g>
<g id="Group_14">
<path id="Vector_13" d="M6.92546 8.87148C6.90144 8.87148 6.87743 8.87015 6.85308 8.86648C6.57721 8.82678 6.38574 8.57126 6.42544 8.2954C6.46413 8.02554 7.42048 1.66931 11.4027 0.22361C12.4077 -0.141319 13.248 -0.0592599 13.8995 0.467451C14.6824 1.10091 15.1143 2.35147 15.1831 4.18412C15.2318 5.48005 15.08 6.59651 15.0733 6.64322C15.0353 6.91941 14.7804 7.11222 14.5046 7.07386C14.2284 7.03583 14.0356 6.78098 14.0739 6.50512C14.2324 5.35362 14.3955 2.166 13.2643 1.25201C12.9021 0.959137 12.4057 0.933119 11.7473 1.17229C8.33347 2.41151 7.43283 8.37913 7.42449 8.43917C7.38813 8.69035 7.17231 8.87148 6.92546 8.87148Z" fill="#95BF47"/>
</g>
<g id="Group_15">
<path id="Vector_14" d="M37.1585 16.7182C36.2545 16.2275 35.7895 15.8142 35.7895 15.2461C35.7895 14.5229 36.4353 14.0579 37.4423 14.0579C38.3723 14.0579 39.1729 14.3161 39.6636 14.5486L40.4902 12.0175C39.9221 11.6819 38.863 11.4234 37.494 11.4234C34.3688 11.4234 32.2253 13.2057 32.2253 15.7111C32.2253 17.1315 33.2323 18.2163 34.5756 18.9911C35.6604 19.6109 36.0477 20.0502 36.0477 20.6957C36.0477 21.3675 35.5053 21.9096 34.4982 21.9096C33.3874 21.9356 32.2253 21.4706 31.5795 21.1347L30.7012 23.6662C31.3727 24.1308 32.7416 24.5184 34.214 24.5441C37.4167 24.5698 39.7153 22.9687 39.7153 20.1276C39.7153 18.6039 38.5531 17.5188 37.1585 16.7182Z" fill="white"/>
</g>
<g id="Group_16">
<path id="Vector_15" d="M49.9165 11.3994C48.341 11.3994 47.1015 12.1483 46.1458 13.2847L46.0941 13.259L47.4631 6.10458H43.8988L40.4377 24.3133H44.0022L45.1901 18.0888C45.6551 15.7385 46.869 14.2921 48.0054 14.2921C48.806 14.2921 49.1162 14.8345 49.1162 15.6094C49.1162 16.1001 49.0642 16.6942 48.9611 17.1849L47.6182 24.3133H51.1824L52.5771 16.9524C52.7318 16.1775 52.8352 15.2478 52.8352 14.6277C52.8352 12.6133 51.7761 11.3994 49.9165 11.3994Z" fill="white"/>
</g>
<g id="Group_17">
<path id="Vector_16" d="M59.1398 21.8331C57.926 21.8331 57.4092 20.8001 57.4092 19.5088C57.4092 17.4684 58.4683 14.1363 60.4054 14.1363C61.671 14.1363 62.0843 15.2211 62.0843 16.2802C62.0843 18.4757 61.0252 21.8331 59.1398 21.8331ZM60.8961 11.3987C56.6087 11.3987 53.7676 15.2728 53.7676 19.5862C53.7676 22.3499 55.4722 24.5708 58.6748 24.5708C62.8848 24.5708 65.7259 20.8001 65.7259 16.3832C65.7259 13.8264 64.2278 11.3987 60.8961 11.3987Z" fill="white"/>
</g>
<g id="Group_18">
<path id="Vector_17" d="M71.4328 21.8849C70.787 21.8849 70.348 21.678 69.9604 21.3685L70.5545 18.0364C70.9678 15.8152 72.13 14.3431 73.3699 14.3431C74.4546 14.3431 74.7902 15.3502 74.7902 16.3059C74.7902 18.6048 73.4212 21.8849 71.4328 21.8849ZM74.8419 11.3987C73.4212 11.3987 72.0269 12.1736 71.0709 13.5165H71.0195L71.226 11.6055H68.0751C67.92 12.8967 67.6361 14.8595 67.3519 16.3319L64.8724 29.3749H68.4367L69.418 24.1061H69.4954C69.9087 24.3643 70.7096 24.5708 71.5876 24.5708C75.7719 24.5708 78.5096 20.2834 78.5096 15.9443C78.5096 13.5425 77.4505 11.3987 74.8419 11.3987Z" fill="white"/>
</g>
<g id="Group_19">
<path id="Vector_18" d="M83.5999 6.28589C82.4637 6.28589 81.5598 7.18987 81.5598 8.35204C81.5598 9.41113 82.2309 10.1343 83.2383 10.1343H83.29C84.4005 10.1343 85.3565 9.38544 85.3822 8.06817C85.3822 7.03509 84.6847 6.28589 83.5999 6.28589Z" fill="white"/>
</g>
<g id="Group_20">
<path id="Vector_19" d="M78.6146 24.3141H82.1791L84.6069 11.6844H81.017L78.6146 24.3141Z" fill="white"/>
</g>
<g id="Group_21">
<path id="Vector_20" d="M93.6685 11.6575H91.189L91.3181 11.0637C91.5246 9.84952 92.2478 8.76474 93.436 8.76474C93.9006 8.76474 94.2626 8.84213 94.5721 8.94554L95.2696 6.1562C94.8563 5.97541 94.2108 5.84631 93.3326 5.84631C92.067 5.84631 90.8014 6.20791 89.8457 7.0345C88.6318 8.06757 88.0638 9.56531 87.7792 11.0637L87.6758 11.6575H86.0233L85.5066 14.3437H87.1598L85.2741 24.3132H88.8387L90.724 14.3437H93.1778L93.6685 11.6575Z" fill="white"/>
</g>
<g id="Group_22">
<path id="Vector_21" d="M102.244 11.6844L100.075 17.3404C99.5581 18.7094 99.2999 19.5103 99.0157 20.3626H98.9643C98.9126 19.536 98.8092 18.632 98.6544 17.3665L98.086 11.6844H94.341L96.4849 23.281C96.5362 23.5392 96.5105 23.6943 96.4071 23.8751C95.9938 24.6757 95.2967 25.4506 94.4701 26.0187C93.7986 26.5094 93.0497 26.8192 92.4556 27.0261L93.437 30.0479C94.1602 29.8931 95.6583 29.299 96.9238 28.1108C98.551 26.5871 100.049 24.2367 101.599 21.0341L105.964 11.6844H102.244Z" fill="white"/>
</g>
</g>
</svg>
